<svg width="422" height="277" viewBox="0 0 422 277" fill="none" xmlns="http://www.w3.org/2000/svg">
<path d="M86.744 149.393C59.4187 106.782 49.4431 56.8864 83.8109 22.5307C118.179 -11.8251 161.79 12.9796 211.065 24.9209C267.043 38.4893 294.755 0.944543 337.176 37.1839C372.066 67.0076 383.165 115 350.127 150.627C313.884 189.683 333.685 215.599 318.532 243.879C288.206 300.56 165.55 272.413 86.744 149.393Z" fill="#E7F5FD"/>
<path d="M46.7074 21.7414C35.0036 21.7414 25.9313 31.2076 25.9313 42.8896H119.995C122.204 42.8896 123.995 41.0987 123.995 38.8896V37.9126C123.995 26.2306 114.507 16.7604 102.803 16.7604C97.5736 16.7604 92.7866 18.651 89.0907 21.7848C89.0907 20.0457 88.8804 18.3637 88.4839 16.7604C88.309 16.0533 88.0978 15.3614 87.8525 14.6867C87.3144 13.2069 86.6118 11.8095 85.7665 10.5142C84.9909 9.32564 84.0951 8.22295 83.0959 7.22123C79.2454 3.36098 73.8596 1 67.8991 1C56.1953 1 46.7074 10.0594 46.7074 21.7414Z" fill="white"/>
<path d="M28.0369 44.904C25.1314 44.5818 26.8263 40.2049 28.0369 38.0567C35.704 29.5982 97.0416 34.8344 108.744 33.6261C120.447 32.4177 122.464 40.4734 122.868 43.6957C123.271 46.918 31.6687 45.3068 28.0369 44.904Z" fill="white"/>
<path d="M46.7074 21.7414C35.0036 21.7414 25.9313 31.2076 25.9313 42.8896H19.6985M46.7074 21.7414C49.1666 21.7414 51.5463 22.1593 53.7713 22.9279M46.7074 21.7414C46.7074 15.4768 49.4359 9.96647 53.7713 6.20292M89.0907 21.7848C92.7866 18.651 97.5736 16.7604 102.803 16.7604C114.507 16.7604 125.241 25.8849 123.995 42.4749H130.227M89.0907 21.7848C89.0907 20.0457 88.8804 18.3637 88.4839 16.7604C88.309 16.0533 88.0978 15.3614 87.8525 14.6867C87.3144 13.2069 86.6118 11.8095 85.7665 10.5142C84.9909 9.32564 84.0951 8.22295 83.0959 7.22123C79.2454 3.36098 73.8596 1 67.8991 1C66.1816 1 64.5119 1.19508 62.9128 1.56491M89.0907 21.7848C87.1341 23.4438 85.4832 25.4512 84.2344 27.711M57.9265 24.8726C58.647 25.3068 59.3407 25.7813 60.0042 26.2927C60.5819 26.7381 61.1368 27.2116 61.6662 27.711M133.967 42.4749H137.291M16.3743 42.8896H7.64836M3.90866 42.8896H1" stroke="#003A5E" stroke-linecap="round" stroke-linejoin="round"/>
<path d="M382.67 140.929C392.485 140.929 400.093 148.868 400.093 158.664H321.858C319.649 158.664 317.858 156.873 317.858 154.664V154.49C317.858 144.694 325.814 136.752 335.629 136.752C340.014 136.752 344.028 138.338 347.128 140.966C347.128 139.507 347.304 138.097 347.637 136.752C347.783 136.159 347.96 135.579 348.166 135.013C348.617 133.772 349.207 132.601 349.915 131.514C350.566 130.518 351.317 129.593 352.155 128.753C355.384 125.516 359.901 123.536 364.899 123.536C374.714 123.536 382.67 131.133 382.67 140.929Z" fill="white"/>
<path d="M398.328 160.352C400.764 160.082 399.343 156.411 398.328 154.61C391.898 147.517 340.461 151.908 330.647 150.894C320.833 149.881 319.141 156.637 318.803 159.339C318.465 162.041 395.282 160.69 398.328 160.352Z" fill="white"/>
<path d="M382.67 140.929C392.485 140.929 400.093 148.868 400.093 158.664H405.32M382.67 140.929C380.608 140.929 378.612 141.28 376.746 141.924M382.67 140.929C382.67 135.676 380.382 131.055 376.746 127.899M347.128 140.966C344.028 138.338 340.014 136.752 335.629 136.752C325.814 136.752 316.812 144.404 317.858 158.316H312.631M347.128 140.966C347.128 139.507 347.304 138.097 347.637 136.752C347.783 136.159 347.96 135.579 348.166 135.013C348.617 133.772 349.207 132.601 349.915 131.514C350.566 130.518 351.317 129.593 352.155 128.753C355.384 125.516 359.901 123.536 364.899 123.536C366.339 123.536 367.739 123.699 369.08 124.009M347.128 140.966C348.769 142.357 350.153 144.04 351.2 145.935M373.262 143.555C372.658 143.919 372.076 144.317 371.52 144.746C371.035 145.12 370.57 145.517 370.126 145.935M309.495 158.316H306.707M408.107 158.664H415.425M418.561 158.664H421" stroke="#003A5E" stroke-linecap="round" stroke-linejoin="round"/>
<rect x="209.122" y="87.8175" width="20.331" height="59.0028" rx="10.1655" fill="#77BDE7" stroke="#003A5E"/>
<path d="M201.935 153.792L209.854 157.376L157.613 272.381C156.621 274.567 154.043 275.536 151.856 274.547C149.669 273.557 148.701 270.983 149.694 268.797L201.935 153.792Z" fill="#BAE1F8" stroke="#003A5E"/>
<path d="M237.867 153.792L229.947 157.376L282.188 272.381C283.181 274.567 285.758 275.536 287.945 274.547C290.132 273.557 291.1 270.983 290.107 268.797L237.867 153.792Z" fill="#BAE1F8" stroke="#003A5E"/>
<path d="M214.939 145.071H223.635V271.342C223.635 273.744 221.688 275.69 219.287 275.69C216.886 275.69 214.939 273.744 214.939 271.342V145.071Z" fill="#BAE1F8" stroke="#003A5E"/>
<rect x="246.905" y="138.144" width="16.4202" height="53.2972" rx="2.5" transform="rotate(90 246.905 138.144)" fill="#77BDE7" stroke="#003A5E"/>
<path d="M246.905 145.886L246.905 155.935C246.905 157.316 245.786 158.435 244.405 158.435L196.108 158.435C194.727 158.435 193.608 157.316 193.608 155.935L193.608 145.886L246.905 145.886Z" fill="#BAE1F8" stroke="#003A5E"/>
<path d="M218.846 276.105H134.596M128.578 276.105H122.561M116.543 276.105H110.525" stroke="#003A5E" stroke-linecap="round" stroke-linejoin="round"/>
<path d="M217.643 276.105H301.893M307.911 276.105H313.929M319.946 276.105H325.964" stroke="#003A5E" stroke-linecap="round" stroke-linejoin="round"/>
<rect x="199.425" y="112.98" width="20.331" height="20.2913" rx="10.1457" fill="#77BDE7" stroke="#003A5E"/>
<rect x="203.304" y="116.851" width="12.5743" height="12.549" rx="6.27451" fill="#98CFEF" stroke="#003A5E"/>
<path d="M122.558 92.7812L127.167 109.949L100.108 117.186C98.774 117.543 97.4025 116.751 97.0446 115.417L93.7323 103.079C93.3743 101.745 94.1654 100.375 95.4992 100.018L122.558 92.7812Z" fill="#B9E1F9" stroke="#003A5E"/>
<path d="M171.672 71.0928L180.358 103.449L129.734 116.989C127.333 117.631 124.864 116.206 124.22 113.805L117.867 90.141C117.223 87.7407 118.647 85.2743 121.048 84.6322L171.672 71.0928Z" fill="#B9E1F9" stroke="#003A5E"/>
<path d="M311.022 57.1481C311.022 70.8041 299.93 81.8761 286.247 81.8761C272.563 81.8761 261.472 70.8041 261.472 57.1481C261.472 43.4921 272.563 32.4202 286.247 32.4202C299.93 32.4202 311.022 43.4921 311.022 57.1481Z" fill="white" stroke="#003A5E"/>
<path d="M273.479 33.0271L287.01 83.4346L180.001 112.054C177.6 112.697 175.131 111.271 174.487 108.871L163.288 67.1556C162.644 64.7553 164.068 62.2889 166.469 61.6468L273.479 33.0271Z" fill="#98CFEF" stroke="#003A5E"/>
<path d="M279.07 23.8834C280.403 23.526 281.774 24.3175 282.131 25.6511L298.045 85.0418C298.402 86.3755 297.611 87.7463 296.277 88.1037L288.026 90.3145C286.693 90.6718 285.322 89.8804 284.965 88.5467L269.051 29.156C268.694 27.8224 269.485 26.4515 270.819 26.0942L279.07 23.8834Z" fill="#77BDE7" stroke="#003A5E"/>
<path d="M322.145 19.0231L320.937 21.5198M338.705 38.4681L336.143 39.4567M334.134 64.1481L336.603 65.3387" stroke="#003A5E" stroke-linecap="round" stroke-linejoin="round"/>
</svg>
