<svg xmlns="http://www.w3.org/2000/svg" xmlns:xlink="http://www.w3.org/1999/xlink" viewBox="0 0 48 48" width="48" height="48" preserveAspectRatio="xMidYMid meet" style="width: 100%; height: 100%; transform: translate3d(0px, 0px, 0px); content-visibility: visible;"><defs><clipPath id="__lottie_element_109"><rect width="48" height="48" x="0" y="0"></rect></clipPath></defs><g clip-path="url(#__lottie_element_109)"><g transform="matrix(1,0,0,1,0,0)" opacity="1" style="display: block;"><g opacity="1" transform="matrix(1,0,0,1,23.9060001373291,24.152000427246094)"><path fill="rgb(207,215,220)" fill-opacity="1" d=" M0.1080000028014183,-20.152000427246094 C0.1080000028014183,-20.152000427246094 0.1080000028014183,-20.152000427246094 0.1080000028014183,-20.152000427246094 C-10.907999992370605,-20.152000427246094 -19.874000549316406,-11.1899995803833 -19.878999710083008,-0.17299999296665192 C-19.8799991607666,3.194000005722046 -19.030000686645508,6.51200008392334 -17.417999267578125,9.449000358581543 C-17.417999267578125,9.449000358581543 -20.003000259399414,18.88800048828125 -20.003000259399414,18.88800048828125 C-20.097000122070312,19.232999801635742 -20.000999450683594,19.60099983215332 -19.749000549316406,19.854999542236328 C-19.55900001525879,20.047000885009766 -19.302000045776367,20.152000427246094 -19.038000106811523,20.152000427246094 C-18.952999114990234,20.152000427246094 -18.868000030517578,20.141000747680664 -18.784000396728516,20.118999481201172 C-18.784000396728516,20.118999481201172 -9.097000122070312,17.57900047302246 -9.097000122070312,17.57900047302246 C-6.269000053405762,19.047000885009766 -3.0989999771118164,19.82200050354004 0.10000000149011612,19.822999954223633 C11.12399959564209,19.822999954223633 20.09000015258789,10.859999656677246 20.094999313354492,-0.15700000524520874 C20.097000122070312,-5.495999813079834 18.020000457763672,-10.515999794006348 14.246999740600586,-14.291999816894531 C10.472000122070312,-18.069000244140625 5.451000213623047,-20.149999618530273 0.1080000028014183,-20.152000427246094z"></path></g><g opacity="1" transform="matrix(1,0,0,1,23.934999465942383,24.150999069213867)"><path fill="rgb(255,255,255)" fill-opacity="1" d=" M-19.066999435424805,19.152000427246094 C-19.066999435424805,19.152000427246094 -16.37299919128418,9.315999984741211 -16.37299919128418,9.315999984741211 C-18.03499984741211,6.438000202178955 -18.909000396728516,3.171999931335449 -18.908000946044922,-0.17299999296665192 C-18.902999877929688,-10.637999534606934 -10.38700008392334,-19.152000427246094 0.07900000363588333,-19.152000427246094 C5.1579999923706055,-19.149999618530273 9.923999786376953,-17.172000885009766 13.508999824523926,-13.585000038146973 C17.093000411987305,-9.996999740600586 19.066999435424805,-5.230000019073486 19.065000534057617,-0.15800000727176666 C19.06100082397461,10.307000160217285 10.541999816894531,18.822999954223633 0.07900000363588333,18.822999954223633 C0.07800000160932541,18.822999954223633 0.07900000363588333,18.822999954223633 0.07900000363588333,18.822999954223633 C0.07900000363588333,18.822999954223633 0.07100000232458115,18.822999954223633 0.07100000232458115,18.822999954223633 C-3.1059999465942383,18.82200050354004 -6.229000091552734,18.024999618530273 -9.001999855041504,16.511999130249023 C-9.001999855041504,16.511999130249023 -19.066999435424805,19.152000427246094 -19.066999435424805,19.152000427246094z"></path></g><g opacity="1" transform="matrix(1,0,0,1,23.934999465942383,24.152000427246094)"><path fill="rgb(255,255,255)" fill-opacity="1" d=" M0.07900000363588333,-19.152000427246094 C5.1579999923706055,-19.149999618530273 9.923999786376953,-17.172000885009766 13.508999824523926,-13.585000038146973 C17.093000411987305,-9.996999740600586 19.066999435424805,-5.230000019073486 19.065000534057617,-0.15800000727176666 C19.06100082397461,10.307000160217285 10.541999816894531,18.82200050354004 0.07900000363588333,18.82200050354004 C0.07900000363588333,18.82200050354004 0.07100000232458115,18.82200050354004 0.07100000232458115,18.82200050354004 C-3.1059999465942383,18.820999145507812 -6.229000091552734,18.024999618530273 -9.001999855041504,16.511999130249023 C-9.001999855041504,16.511999130249023 -19.066999435424805,19.152000427246094 -19.066999435424805,19.152000427246094 C-19.066999435424805,19.152000427246094 -16.37299919128418,9.315999984741211 -16.37299919128418,9.315999984741211 C-18.03499984741211,6.438000202178955 -18.909000396728516,3.171999931335449 -18.908000946044922,-0.17299999296665192 C-18.902999877929688,-10.637999534606934 -10.38700008392334,-19.152000427246094 0.07900000363588333,-19.152000427246094z"></path></g><g opacity="1" transform="matrix(1,0,0,1,0.5,0.5)"><path fill="rgb(207,215,220)" fill-opacity="1" d="M0 0"></path><path fill="rgb(207,215,220)" fill-opacity="1" d="M0 0"></path></g><g opacity="1" transform="matrix(1,0,0,1,24.01300048828125,23.988000869750977)"><path fill="rgb(64,195,81)" fill-opacity="1" d=" M11.163000106811523,-11.156000137329102 C8.184000015258789,-14.137999534606934 4.2230000495910645,-15.779999732971191 0.006000000052154064,-15.781000137329102 C-8.697999954223633,-15.781000137329102 -15.777000427246094,-8.706000328063965 -15.781000137329102,-0.00800000037997961 C-15.781999588012695,2.9730000495910645 -14.947999954223633,5.875999927520752 -13.368000030517578,8.388999938964844 C-13.368000030517578,8.388999938964844 -12.991999626159668,8.986000061035156 -12.991999626159668,8.986000061035156 C-12.991999626159668,8.986000061035156 -14.586999893188477,14.807000160217285 -14.586999893188477,14.807000160217285 C-14.586999893188477,14.807000160217285 -8.61400032043457,13.239999771118164 -8.61400032043457,13.239999771118164 C-8.61400032043457,13.239999771118164 -8.036999702453613,13.583000183105469 -8.036999702453613,13.583000183105469 C-5.614999771118164,15.020999908447266 -2.8369998931884766,15.779999732971191 -0.004999999888241291,15.781000137329102 C-0.004999999888241291,15.781000137329102 0.0010000000474974513,15.781000137329102 0.0010000000474974513,15.781000137329102 C8.699000358581543,15.781000137329102 15.777999877929688,8.704999923706055 15.781000137329102,0.006000000052154064 C15.781999588012695,-4.209000110626221 14.142999649047852,-8.173999786376953 11.163000106811523,-11.156000137329102z"></path></g></g><g transform="matrix(1.0061739683151245,0,0,1.0061739683151245,-0.14817428588867188,-0.14817428588867188)" opacity="1" style="display: block;"><g opacity="1" transform="matrix(1,0,0,1,24.0310001373291,24.312000274658203)"><path fill="rgb(255,255,255)" fill-opacity="1" d=" M-4.76200008392334,-8.267000198364258 C-5.117000102996826,-9.057000160217285 -5.492000102996826,-9.072999954223633 -5.830999851226807,-9.086999893188477 C-6.107999801635742,-9.098999977111816 -6.423999786376953,-9.097999572753906 -6.739999771118164,-9.097999572753906 C-7.056000232696533,-9.097999572753906 -7.570000171661377,-8.979000091552734 -8.005000114440918,-8.503999710083008 C-8.4399995803833,-8.029000282287598 -9.664999961853027,-6.881999969482422 -9.664999961853027,-4.547999858856201 C-9.664999961853027,-2.2139999866485596 -7.966000080108643,0.041999999433755875 -7.729000091552734,0.3580000102519989 C-7.492000102996826,0.6740000247955322 -4.446000099182129,5.617000102996826 0.37599998712539673,7.519000053405762 C4.382999897003174,9.098999977111816 5.197000026702881,8.78499984741211 6.067999839782715,8.706000328063965 C6.938000202178955,8.628000259399414 8.875,7.559000015258789 9.270000457763672,6.451000213623047 C9.664999961853027,5.3429999351501465 9.666000366210938,4.394000053405762 9.54800033569336,4.196000099182129 C9.428999900817871,3.997999906539917 9.11299991607666,3.880000114440918 8.638999938964844,3.6419999599456787 C8.164999961853027,3.4040000438690186 5.830999851226807,2.256999969482422 5.395999908447266,2.0989999771118164 C4.960999965667725,1.940999984741211 4.645999908447266,1.8619999885559082 4.328999996185303,2.3369998931884766 C4.013000011444092,2.811000108718872 3.1040000915527344,3.880000114440918 2.8269999027252197,4.196000099182129 C2.549999952316284,4.513000011444092 2.2730000019073486,4.552999973297119 1.7990000247955322,4.315000057220459 C1.3250000476837158,4.077000141143799 -0.2029999941587448,3.5769999027252197 -2.0160000324249268,1.9620000123977661 C-3.4260001182556152,0.7039999961853027 -4.379000186920166,-0.8489999771118164 -4.656000137329102,-1.3240000009536743 C-4.933000087738037,-1.7979999780654907 -4.684999942779541,-2.055000066757202 -4.447000026702881,-2.2920000553131104 C-4.234000205993652,-2.505000114440918 -3.9739999771118164,-2.8459999561309814 -3.7360000610351562,-3.122999906539917 C-3.499000072479248,-3.4000000953674316 -3.4200000762939453,-3.5980000495910645 -3.26200008392334,-3.9140000343322754 C-3.1040000915527344,-4.230999946594238 -3.181999921798706,-4.507999897003174 -3.3010001182556152,-4.744999885559082 C-3.4179999828338623,-4.982999801635742 -4.340000152587891,-7.328999996185303 -4.76200008392334,-8.267000198364258z"></path></g></g></g></svg>